<?xml version="1.0" encoding="utf-8"?>
<!-- Generated by IcoMoon.io -->
<!DOCTYPE svg PUBLIC "-//W3C//DTD SVG 1.1//EN" "http://www.w3.org/Graphics/SVG/1.1/DTD/svg11.dtd">
<svg version="1.1" xmlns="http://www.w3.org/2000/svg" xmlns:xlink="http://www.w3.org/1999/xlink" width="52" height="32" viewBox="0 0 52 32">
<path fill="#4a4a4a" d="M25.038 16.129c-0.075-0.057-0.15-0.115-0.226-0.172-0.096 0.067-0.185 0.161-0.291 0.195-0.258 0.084-0.525 0.14-0.789 0.206 0.009-0.29-0.016-0.587 0.038-0.868 0.034-0.172 0.191-0.32 0.293-0.478 1.083-1.678 2.217-3.325 3.227-5.046 0.566-0.966 0.906-2.172 0.189-3.135-0.743-0.997-2.012-1.023-3.121-0.718-1.734 0.475-3.491 0.968-5.12 1.716-4.891 2.242-9.281 5.265-13.217 8.975-2.828 2.666-4.931 5.695-5.506 9.67-0.401 2.773 1.356 4.28 3.68 4.537 3.921 0.433 7.282-1.079 10.411-3.217 3.463-2.366 6.177-5.496 8.564-8.932 0.63-0.906 1.246-1.822 1.868-2.734zM39.606 10.682c-2.281 0.648-3.807 2.233-5.248 3.938-0.11-0.051-0.221-0.103-0.331-0.154 0.092-0.334 0.104-0.727 0.293-0.99 0.565-0.785 1.219-1.503 1.795-2.279 0.207-0.278 0.293-0.648 0.434-0.976-0.099-0.083-0.196-0.167-0.295-0.25-0.941 0.849-1.932 1.648-2.811 2.559-0.97 1.004-1.822 2.122-2.757 3.162-0.217 0.241-0.561 0.365-0.848 0.543 0.046-0.353-0.020-0.783 0.157-1.044 1.018-1.496 2.099-2.948 3.146-4.423 0.247-0.348 0.445-0.732 0.665-1.099-0.052-0.072-0.104-0.143-0.157-0.215-0.473 0.267-0.945 0.531-1.417 0.798-3.123 1.763-5.298 4.442-7.231 7.415-2.727 4.192-5.843 8.037-10.035 10.876-2.493 1.689-5.164 2.891-8.131 3.352-1.503 0.233-3.007 0.103-4.392-0.585-1.964-0.976-2.688-2.748-2.374-4.938 0.646-4.489 3.277-7.725 6.433-10.609 4.102-3.746 8.708-6.749 13.78-8.983 1.972-0.868 4.002-1.594 6.241-1.298 1.346 0.177 2.155 0.974 2.208 2.349 0.068 1.773-0.769 3.2-1.731 4.578-0.329 0.472-0.641 0.956-0.961 1.434 0.077 0.066 0.155 0.133 0.233 0.198 0.328-0.326 0.705-0.616 0.977-0.985 1.296-1.761 2.565-3.542 3.84-5.319 0.072-0.1 0.195-0.236 0.173-0.324-0.293-1.16 0.74-1.412 1.312-1.968 1.623-1.576 3.235-3.165 4.907-4.688 0.37-0.337 0.713-1.080 1.465-0.6-0.278 0.431-0.469 0.974-0.848 1.275-3.053 2.426-5.528 5.38-7.775 8.548-0.089 0.126-0.189 0.245-0.268 0.376-0.048 0.079-0.067 0.176-0.185 0.51 0.696-0.425 1.219-0.755 1.752-1.068 0.747-0.441 1.485-0.903 2.261-1.286 0.271-0.133 0.643-0.056 0.969-0.075-0.018 0.32 0.014 0.652-0.067 0.955-0.090 0.337-0.281 0.647-0.515 1.159 0.756-0.437 1.293-0.797 1.87-1.070 1.011-0.478 1.296-0.273 1.258 0.836-0.005 0.153-0.015 0.305-0.025 0.519 0.806-0.311 1.539-0.619 2.289-0.878 1.401-0.483 1.57-0.354 1.447 1.276 0.745-0.516 1.38-0.947 2.007-1.39 0.435-0.307 0.797-0.753 1.213 0.105 0.262 0.543 1.19 0.276 1.91-0.448 1.399-1.407 2.804-2.806 4.221-4.192 0.278-0.271 0.625-0.469 0.941-0.701 0.085 0.055 0.171 0.11 0.256 0.165-0.113 0.3-0.162 0.649-0.347 0.893-1.305 1.713-2.849 3.172-4.454 4.612-1.817 1.629-3.393 3.555-4.947 5.458-2.586 3.166-5.062 6.422-7.61 9.62-0.206 0.259-0.607 0.358-0.918 0.532 0.051-0.375 0.008-0.799 0.168-1.117 0.954-1.889 2.281-3.481 3.865-4.874 0.624-0.55 1.172-1.191 1.723-1.82 0.145-0.165 0.17-0.435 0.25-0.656-0.221-0.078-0.448-0.241-0.66-0.221-2.176 0.198-4.347 0.457-6.524 0.633-1.396 0.112-2.8 0.128-4.201 0.147-0.239 0.003-0.48-0.194-0.987-0.414 0.552-0.188 0.823-0.346 1.103-0.366 3.866-0.278 7.735-0.521 11.599-0.823 0.405-0.032 0.893-0.281 1.159-0.591 1.037-1.206 2.016-2.464 2.975-3.736 0.182-0.242 0.174-0.633 0.253-0.955-0.427-0.098-0.905-0.367-1.272-0.256-0.606 0.183-1.117 0.66-1.708 0.924-1.583 0.707-1.641 0.657-1.517-1.081z"></path>
</svg>
